<svg width="18" height="20" viewBox="0 0 18 20" fill="none" xmlns="http://www.w3.org/2000/svg">
<path d="M8.99388 15.2548C8.40158 15.8405 7.69181 16.1317 6.86457 16.1284C6.03732 16.1251 5.33084 15.8339 4.74512 15.2548C4.16598 14.6691 3.87477 13.9652 3.87148 13.1432C3.86818 12.3212 4.15939 11.6174 4.74512 11.0317L9.00579 6.74534C9.5915 6.15961 10.3013 5.86674 11.1351 5.86674C11.9689 5.86674 12.6787 6.15961 13.2644 6.74534C13.8501 7.33105 14.1414 8.0349 14.1381 8.85689C14.1348 9.67887 13.8436 10.3827 13.2644 10.9684L8.99388 15.2548ZM5.81717 14.1571C6.21072 14.5506 6.61711 14.6918 7.03633 14.5806C7.45556 14.4693 7.74217 14.3367 7.89617 14.1827L9.48555 12.5677L7.43222 10.5143L5.81717 12.1037C5.52628 12.3946 5.38083 12.7368 5.38083 13.1304C5.38083 13.5239 5.52628 13.8662 5.81717 14.1571ZM12.1825 7.84305C11.7889 7.4495 11.3826 7.30833 10.9633 7.41955C10.5441 7.53078 10.2575 7.66339 10.1035 7.81739L8.51412 9.43244L10.5675 11.4858L12.1825 9.89639C12.4734 9.6055 12.6188 9.26328 12.6188 8.86972C12.6188 8.47616 12.4734 8.13394 12.1825 7.84305ZM2.1291 19.7267C1.61708 19.7267 1.17977 19.5454 0.817147 19.1827C0.454511 18.8201 0.273193 18.3828 0.273193 17.8708V4.12932C0.273193 3.6173 0.454511 3.17998 0.817147 2.81736C1.17977 2.45473 1.61708 2.27341 2.1291 2.27341H6.69777C6.76226 1.70349 7.01102 1.21879 7.44405 0.819318C7.8771 0.419825 8.39569 0.220078 8.99983 0.220078C9.61056 0.220078 10.1324 0.419825 10.5655 0.819318C10.9985 1.21879 11.244 1.70349 11.3019 2.27341H15.8706C16.3826 2.27341 16.8199 2.45473 17.1825 2.81736C17.5452 3.17998 17.7265 3.6173 17.7265 4.12932V17.8708C17.7265 18.3828 17.5452 18.8201 17.1825 19.1827C16.8199 19.5454 16.3826 19.7267 15.8706 19.7267H2.1291ZM2.1291 18.1867H15.8706C15.9496 18.1867 16.022 18.1538 16.0878 18.088C16.1536 18.0222 16.1865 17.9498 16.1865 17.8708V4.12932C16.1865 4.05033 16.1536 3.97793 16.0878 3.9121C16.022 3.84629 15.9496 3.81339 15.8706 3.81339H2.1291C2.05011 3.81339 1.97771 3.84629 1.91188 3.9121C1.84607 3.97793 1.81317 4.05033 1.81317 4.12932V17.8708C1.81317 17.9498 1.84607 18.0222 1.91188 18.088C1.97771 18.1538 2.05011 18.1867 2.1291 18.1867ZM8.99983 3.1421C9.22228 3.1421 9.40622 3.06938 9.55167 2.92393C9.69711 2.77849 9.76983 2.59454 9.76983 2.3721C9.76983 2.14966 9.69711 1.96571 9.55167 1.82027C9.40622 1.67482 9.22228 1.6021 8.99983 1.6021C8.77739 1.6021 8.59345 1.67482 8.448 1.82027C8.30256 1.96571 8.22984 2.14966 8.22984 2.3721C8.22984 2.59454 8.30256 2.77849 8.448 2.92393C8.59345 3.06938 8.77739 3.1421 8.99983 3.1421Z" fill="#BF1E2E"/>
</svg>
