<svg width="10" height="18" viewBox="0 0 10 18" fill="none" xmlns="http://www.w3.org/2000/svg">
<path d="M5.76348 15.8668V17.9708H4.24851V15.8352V15.8248L4.2382 15.8229C3.34646 15.664 2.57884 15.3158 1.93502 14.7783C1.294 14.2431 0.819513 13.4951 0.511978 12.5334L1.91459 11.9506C2.19134 12.7411 2.58489 13.3471 3.09575 13.7679C3.60994 14.1914 4.29582 14.4026 5.1521 14.4026C5.89522 14.4026 6.5514 14.2257 7.12023 13.8715C7.69115 13.5161 7.9761 12.9523 7.9761 12.1827C7.9761 11.5151 7.76213 10.9808 7.33341 10.5812C6.90537 10.1823 6.022 9.76733 4.68607 9.33561L4.68599 9.33559C3.28745 8.89353 2.3183 8.37707 1.77629 7.78722C1.23439 7.19748 0.963176 6.45562 0.963176 5.5607C0.963176 4.53077 1.32444 3.7214 2.04647 3.13107C2.77029 2.53927 3.50048 2.21121 4.23712 2.14567L4.24851 2.14466V2.13322V0.0292236H5.76348V2.13322V2.14417L5.77434 2.14561C6.55573 2.24936 7.21171 2.50338 7.74278 2.90724C8.27098 3.30895 8.6826 3.83063 8.9776 4.47259L7.59463 5.10579C7.36911 4.61453 7.05551 4.23211 6.65373 3.959C6.24827 3.6834 5.71579 3.54617 5.05734 3.54617C4.28268 3.54617 3.65872 3.73491 3.18669 4.11359C2.71461 4.49233 2.47815 4.97498 2.47815 5.5607C2.47815 6.16223 2.72024 6.64374 3.20382 7.0041C3.68616 7.36356 4.5811 7.73919 5.88685 8.13145C7.09906 8.49957 8.00229 9.02376 8.59782 9.70325C9.19328 10.3826 9.49108 11.1984 9.49108 12.1511C9.49108 13.2709 9.13118 14.1385 8.41248 14.7557C7.69263 15.3738 6.81352 15.7402 5.77462 15.8544L5.76348 15.8556V15.8668Z" fill="#BF1E2E" stroke="#BF1E2E" stroke-width="0.025"/>
</svg>
