<svg width="22" height="22" viewBox="0 0 22 22" fill="none" xmlns="http://www.w3.org/2000/svg">
<path d="M11 15.8569C11.235 15.8569 11.4319 15.7775 11.5908 15.6185C11.7498 15.4596 11.8292 15.2626 11.8292 15.0277C11.8292 14.7928 11.7498 14.5958 11.5908 14.4369C11.4319 14.278 11.235 14.1985 11 14.1985C10.7651 14.1985 10.5681 14.278 10.4092 14.4369C10.2503 14.5958 10.1708 14.7928 10.1708 15.0277C10.1708 15.2626 10.2503 15.4596 10.4092 15.6185C10.5681 15.7775 10.7651 15.8569 11 15.8569ZM10.23 12.1057H11.77V5.94566H10.23V12.1057ZM11 21.8905L7.77567 18.7H3.30004V14.2244L0.109497 11L3.30004 7.77567V3.30004H7.77567L11 0.109497L14.2244 3.30004H18.7V7.77567L21.8905 11L18.7 14.2244V18.7H14.2244L11 21.8905ZM11 19.7267L13.5667 17.16H17.16V13.5667L19.7267 11L17.16 8.43335V4.84002H13.5667L11 2.27335L8.43335 4.84002H4.84002V8.43335L2.27335 11L4.84002 13.5667V17.16H8.43335L11 19.7267Z" fill="#BF1E2E"/>
</svg>
