<svg width="20" height="20" viewBox="0 0 20 20" fill="none" xmlns="http://www.w3.org/2000/svg">
<path d="M4.09658 11.7966H11.7965V10.2567H4.09658V11.7966ZM4.09658 8.71664H15.9032V7.17669H4.09658V8.71664ZM4.09658 5.63664H15.9032V4.09669H4.09658V5.63664ZM0.246582 19.2794V2.1026C0.246582 1.58399 0.426249 1.14502 0.785582 0.785689C1.14492 0.426356 1.58388 0.246689 2.10249 0.246689H17.8973C18.4159 0.246689 18.8549 0.426356 19.2142 0.785689C19.5735 1.14502 19.7532 1.58399 19.7532 2.1026V13.7907C19.7532 14.3093 19.5735 14.7483 19.2142 15.1076C18.8549 15.467 18.4159 15.6466 17.8973 15.6466H3.87939L0.246582 19.2794ZM3.22392 14.1067H17.8973C17.9763 14.1067 18.0487 14.0738 18.1145 14.0079C18.1803 13.9421 18.2132 13.8697 18.2132 13.7907V2.1026C18.2132 2.02361 18.1803 1.9512 18.1145 1.88538C18.0487 1.81957 17.9763 1.78666 17.8973 1.78666H2.10249C2.0235 1.78666 1.9511 1.81957 1.88527 1.88538C1.81946 1.9512 1.78656 2.02361 1.78656 2.1026V15.5282L3.22392 14.1067Z" fill="#BF1E2E"/>
</svg>
