<svg width="29" height="25" viewBox="0 0 29 25" fill="none" xmlns="http://www.w3.org/2000/svg">
<path d="M26.6796 22.7312V2.4236C26.6796 2.30393 26.6412 2.20563 26.5642 2.1287C26.4873 2.05177 26.389 2.0133 26.2693 2.0133H3.08992C2.97025 2.0133 2.87195 2.05177 2.79502 2.1287C2.71809 2.20563 2.67962 2.30393 2.67962 2.4236V12.68H0.679688V2.4236C0.679688 1.76078 0.915687 1.19337 1.38769 0.721368C1.85969 0.249368 2.4271 0.0133667 3.08992 0.0133667H26.2693C26.9321 0.0133667 27.4996 0.249368 27.9716 0.721368C28.4436 1.19337 28.6796 1.76078 28.6796 2.4236V20.4877C28.6796 21.0671 28.4869 21.571 28.1014 21.9992C27.7159 22.4274 27.242 22.6714 26.6796 22.7312ZM10.6796 13.9364C9.39631 13.9364 8.29771 13.4794 7.38382 12.5656C6.46993 11.6517 6.01299 10.5531 6.01299 9.26977C6.01299 7.98643 6.46993 6.88783 7.38382 5.97397C8.29771 5.06008 9.39631 4.60313 10.6796 4.60313C11.9629 4.60313 13.0615 5.06008 13.9754 5.97397C14.8893 6.88783 15.3463 7.98643 15.3463 9.26977C15.3463 10.5531 14.8893 11.6517 13.9754 12.5656C13.0615 13.4794 11.9629 13.9364 10.6796 13.9364ZM10.6796 11.9364C11.413 11.9364 12.0407 11.6753 12.563 11.1531C13.0852 10.6309 13.3463 10.0031 13.3463 9.26977C13.3463 8.53643 13.0852 7.90866 12.563 7.38643C12.0407 6.86421 11.413 6.6031 10.6796 6.6031C9.94629 6.6031 9.31851 6.86421 8.79629 7.38643C8.27407 7.90866 8.01295 8.53643 8.01295 9.26977C8.01295 10.0031 8.27407 10.6309 8.79629 11.1531C9.31851 11.6753 9.94629 11.9364 10.6796 11.9364ZM0.679688 24.0902V21.1261C0.679688 20.4732 0.857021 19.8685 1.21169 19.3121C1.5664 18.7557 2.04033 18.3279 2.63349 18.0287C3.95144 17.3826 5.28093 16.898 6.62195 16.5749C7.96298 16.2518 9.31553 16.0903 10.6796 16.0903C12.0437 16.0903 13.3963 16.2518 14.7373 16.5749C16.0783 16.898 17.4078 17.3826 18.7258 18.0287C19.3189 18.3279 19.7928 18.7557 20.1475 19.3121C20.5022 19.8685 20.6796 20.4732 20.6796 21.1261V24.0902H0.679688ZM2.67962 22.0902H18.6796V21.1261C18.6796 20.856 18.6014 20.606 18.445 20.3761C18.2886 20.1462 18.0762 19.9586 17.8078 19.8133C16.6591 19.2475 15.4878 18.8189 14.2939 18.5274C13.1 18.236 11.8952 18.0902 10.6796 18.0902C9.46402 18.0902 8.25927 18.236 7.06535 18.5274C5.87144 18.8189 4.70013 19.2475 3.55142 19.8133C3.28304 19.9586 3.07065 20.1462 2.91425 20.3761C2.75783 20.606 2.67962 20.856 2.67962 21.1261V22.0902Z" fill="#BF1E2E"/>
</svg>
