<svg width="18" height="18" viewBox="0 0 18 18" fill="none" xmlns="http://www.w3.org/2000/svg">
<path d="M2.1291 17.7265C1.6105 17.7265 1.17153 17.5468 0.812193 17.1875C0.45286 16.8281 0.273193 16.3892 0.273193 15.8706V2.1291C0.273193 1.6105 0.45286 1.17153 0.812193 0.812193C1.17153 0.45286 1.6105 0.273193 2.1291 0.273193H15.8706C16.3892 0.273193 16.8281 0.45286 17.1875 0.812193C17.5468 1.17153 17.7265 1.6105 17.7265 2.1291V15.8706C17.7265 16.3892 17.5468 16.8281 17.1875 17.1875C16.8281 17.5468 16.3892 17.7265 15.8706 17.7265H2.1291ZM1.81317 5.57239H16.1865V2.1291C16.1865 2.05011 16.1536 1.97771 16.0878 1.91188C16.022 1.84607 15.9496 1.81317 15.8706 1.81317H2.1291C2.05011 1.81317 1.97771 1.84607 1.91188 1.91188C1.84607 1.97771 1.81317 2.05011 1.81317 2.1291V5.57239ZM1.81317 10.8873H16.1865V7.11233H1.81317V10.8873ZM2.1291 16.1865H15.8706C15.9496 16.1865 16.022 16.1536 16.0878 16.0878C16.1536 16.022 16.1865 15.9496 16.1865 15.8706V12.4273H1.81317V15.8706C1.81317 15.9496 1.84607 16.022 1.91188 16.0878C1.97771 16.1536 2.05011 16.1865 2.1291 16.1865ZM3.23474 4.61281V2.75693H5.09062V4.61281H3.23474ZM3.23474 9.92779V8.07188H5.09062V9.92779H3.23474ZM3.23474 15.2427V13.3869H5.09062V15.2427H3.23474Z" fill="#BF1E2E"/>
</svg>
