<svg width="16" height="20" viewBox="0 0 16 20" fill="none" xmlns="http://www.w3.org/2000/svg">
<path d="M8.00165 9.86535C8.49924 9.86535 8.92463 9.68818 9.27783 9.33385C9.63103 8.97952 9.80763 8.55356 9.80763 8.05598C9.80763 7.55839 9.63046 7.133 9.27613 6.7798C8.9218 6.4266 8.49584 6.25 7.99825 6.25C7.50067 6.25 7.07528 6.42717 6.72208 6.7815C6.36888 7.13583 6.19228 7.56179 6.19228 8.05938C6.19228 8.55696 6.36945 8.98235 6.72378 9.33555C7.07811 9.68875 7.50407 9.86535 8.00165 9.86535ZM7.99995 19.5096C5.4833 17.3288 3.59613 15.2993 2.33843 13.4211C1.08075 11.5429 0.451904 9.81857 0.451904 8.24805C0.451904 5.94038 1.19838 4.07213 2.69133 2.64328C4.18426 1.21443 5.9538 0.5 7.99995 0.5C10.0461 0.5 11.8156 1.21443 13.3086 2.64328C14.8015 4.07213 15.548 5.94038 15.548 8.24805C15.548 9.81857 14.9192 11.5429 13.6615 13.4211C12.4038 15.2993 10.5166 17.3288 7.99995 19.5096Z" fill="#061021"/>
</svg>
