<svg width="75" height="75" viewBox="0 0 75 75" fill="none" xmlns="http://www.w3.org/2000/svg">
<mask id="mask0_142_972" style="mask-type:alpha" maskUnits="userSpaceOnUse" x="0" y="0" width="75" height="75">
<rect width="75" height="75" fill="#D9D9D9"/>
</mask>
<g mask="url(#mask0_142_972)">
<path d="M23 8H52V30.267C52 31.3918 51.6979 32.436 51.0938 33.3996C50.4896 34.3632 49.676 35.1534 48.6529 35.7702L38.1041 42.1322L40.4242 49.6069H49.4625L42.0192 54.8319L44.9433 64L37.5 58.3032L30.0567 64L32.9808 54.8319L25.5374 49.6069H34.5758L36.8959 42.1322L26.2262 35.8911C25.2031 35.3146 24.4097 34.5244 23.8458 33.5205C23.2819 32.5166 23 31.4321 23 30.267V8ZM35.9292 11.1447V37.911L37.5 38.8302L39.0708 37.911V11.1447H35.9292Z" fill="#BF1E2E"/>
</g>
</svg>
