<svg width="22" height="21" viewBox="0 0 22 21" fill="none" xmlns="http://www.w3.org/2000/svg">
<path d="M1.30569 15.9744L0.052002 15.0642L4.86943 7.35439L7.94943 10.9477L12.0364 4.3139L14.4885 7.99406C14.1937 8.01776 13.9169 8.05823 13.6583 8.11549C13.3997 8.17274 13.142 8.25007 12.8853 8.34746L12.0936 7.16479L8.17252 13.544L5.06686 9.92496L1.30569 15.9744ZM20.8301 20.9281L17.4639 17.5815C17.1414 17.8145 16.7853 17.9909 16.3957 18.1107C16.0061 18.2304 15.602 18.2903 15.1835 18.2903C14.0384 18.2903 13.0676 17.8922 12.2713 17.0958C11.475 16.2995 11.0768 15.3288 11.0768 14.1837C11.0768 13.0386 11.475 12.0678 12.2713 11.2715C13.0676 10.4752 14.0384 10.077 15.1835 10.077C16.3286 10.077 17.2993 10.4752 18.0956 11.2715C18.892 12.0678 19.2901 13.0386 19.2901 14.1837C19.2901 14.6088 19.2286 15.0178 19.1055 15.4107C18.9824 15.8036 18.8011 16.1666 18.5616 16.4996L21.9279 19.8303L20.8301 20.9281ZM15.1835 16.7503C15.9021 16.7503 16.5096 16.5022 17.0058 16.006C17.502 15.5098 17.7501 14.9023 17.7501 14.1837C17.7501 13.465 17.502 12.8576 17.0058 12.3613C16.5096 11.8651 15.9021 11.617 15.1835 11.617C14.4648 11.617 13.8574 11.8651 13.3611 12.3613C12.8649 12.8576 12.6168 13.465 12.6168 14.1837C12.6168 14.9023 12.8649 15.5098 13.3611 16.006C13.8574 16.5022 14.4648 16.7503 15.1835 16.7503ZM17.2704 8.35929C17.0242 8.2619 16.7719 8.18195 16.5132 8.11944C16.2546 8.05692 15.9864 8.0171 15.7087 7.99999L20.6939 0.0986328L21.9476 1.0088L17.2704 8.35929Z" fill="#BF1E2E"/>
</svg>
