<svg width="92" height="97" viewBox="0 0 92 97" fill="none" xmlns="http://www.w3.org/2000/svg">
<path d="M62.5 81.5385C66.3846 81.5385 69.6955 80.1859 72.4326 77.4808C75.1699 74.7757 76.5385 71.4488 76.5385 67.5C76.5385 63.6154 75.1699 60.3045 72.4326 57.5674C69.6955 54.8301 66.3846 53.4615 62.5 53.4615C58.5513 53.4615 55.2243 54.8301 52.5192 57.5674C49.8141 60.3045 48.4615 63.6154 48.4615 67.5C48.4615 71.4488 49.8141 74.7757 52.5192 77.4808C55.2243 80.1859 58.5513 81.5385 62.5 81.5385ZM88 96.5385L74.0192 82.5866C72.3974 83.8622 70.6138 84.8397 68.6683 85.5192C66.7227 86.1987 64.6667 86.5385 62.5 86.5385C57.2115 86.5385 52.7163 84.6875 49.0144 80.9856C45.3125 77.2837 43.4615 72.7885 43.4615 67.5C43.4615 62.2115 45.3125 57.7163 49.0144 54.0144C52.7163 50.3125 57.2115 48.4615 62.5 48.4615C67.7885 48.4615 72.2837 50.3125 75.9856 54.0144C79.6875 57.7163 81.5385 62.2115 81.5385 67.5C81.5385 69.6859 81.1779 71.7677 80.4568 73.7453C79.7356 75.7228 78.7372 77.5224 77.4616 79.1442L91.4424 93L88 96.5385ZM8.07688 90C5.77563 90 3.85417 89.2292 2.3125 87.6875C0.770833 86.1458 0 84.2244 0 81.9231V8.07687C0 5.77562 0.770833 3.85417 2.3125 2.3125C3.85417 0.770833 5.77563 0 8.07688 0H47.5L70 22.5V37.5961C68.7692 37.2756 67.5289 37.0192 66.2789 36.8269C65.0289 36.6346 63.7692 36.5385 62.5 36.5385C57.7052 36.5385 53.2709 37.5257 49.1971 39.5C45.1234 41.4743 41.6603 44.173 38.8078 47.5961L17.5 47.5V52.5H35.4808C34.1731 54.7885 33.1875 57.1988 32.524 59.7308C31.8606 62.2628 31.5417 64.8526 31.5672 67.5H17.5V72.5H31.9326C32.4647 75.8974 33.5545 79.0849 35.2019 82.0625C36.8494 85.0401 38.9391 87.6859 41.4711 90H8.07688ZM45 25H65L45 5V25Z" fill="#BF1E2E"/>
</svg>
