<svg width="20" height="19" viewBox="0 0 20 19" fill="none" xmlns="http://www.w3.org/2000/svg">
<path d="M14.1066 8.85487C14.358 8.85487 14.5722 8.76635 14.7492 8.58932C14.9262 8.41229 15.0147 8.19808 15.0147 7.94668C15.0147 7.69528 14.9262 7.48107 14.7492 7.30404C14.5722 7.12701 14.358 7.03849 14.1066 7.03849C13.8552 7.03849 13.6409 7.12701 13.4639 7.30404C13.2869 7.48107 13.1984 7.69528 13.1984 7.94668C13.1984 8.19808 13.2869 8.41229 13.4639 8.58932C13.6409 8.76635 13.8552 8.85487 14.1066 8.85487ZM5.89322 6.66332H11.0266V5.12337H5.89322V6.66332ZM2.68492 18.7267C2.14263 16.855 1.60067 14.9925 1.05903 13.1392C0.5174 11.286 0.246582 9.38401 0.246582 7.43335C0.246582 6.00392 0.744781 4.79101 1.74118 3.79463C2.73756 2.79824 3.95046 2.30004 5.37989 2.30004H10.7699C11.2398 1.68274 11.8035 1.18619 12.4609 0.810396C13.1184 0.434602 13.8381 0.246704 14.6199 0.246704C14.9029 0.246704 15.1447 0.34707 15.3454 0.5478C15.5462 0.748514 15.6465 0.990362 15.6465 1.27335C15.6465 1.34311 15.637 1.41287 15.6179 1.48263C15.5988 1.55238 15.5787 1.61687 15.5577 1.67611C15.4629 1.92357 15.3823 2.17695 15.3158 2.43625C15.2493 2.69555 15.1924 2.95749 15.145 3.22206L17.8164 5.89337H19.7532V12.1659L16.9516 13.0859L15.2615 18.7267H10.5132V16.6733H7.4332V18.7267H2.68492ZM3.83989 17.1867H5.89322V15.1333H12.0532V17.1867H14.1066L15.6979 11.8993L18.2132 11.0523V7.43335H17.1866L13.5932 3.84001C13.5932 3.49779 13.6146 3.1684 13.6574 2.85185C13.7002 2.53529 13.7709 2.21775 13.8696 1.89923C13.3734 2.03612 12.9404 2.27468 12.5705 2.61492C12.2007 2.95517 11.917 3.36354 11.7196 3.84001H5.37989C4.38745 3.84001 3.54045 4.19079 2.83889 4.89235C2.13733 5.5939 1.78656 6.4409 1.78656 7.43335C1.78656 9.11024 2.01756 10.7486 2.47956 12.3485C2.94156 13.9484 3.395 15.5611 3.83989 17.1867Z" fill="#BF1E2E"/>
</svg>
