<svg width="24" height="24" viewBox="0 0 24 24" fill="none" xmlns="http://www.w3.org/2000/svg">
<path d="M22.0562 23.4358L13.6819 15.0615C13.0152 15.6119 12.2485 16.0426 11.3819 16.3538C10.5152 16.6649 9.61862 16.8204 8.69213 16.8204C6.41324 16.8204 4.48455 16.0314 2.90606 14.4533C1.32757 12.8752 0.53833 10.947 0.53833 8.66872C0.53833 6.39041 1.32737 4.46151 2.90546 2.88202C4.48355 1.30255 6.41175 0.512817 8.69006 0.512817C10.9684 0.512817 12.8972 1.30206 14.4767 2.88055C16.0562 4.45904 16.846 6.38773 16.846 8.66662C16.846 9.61875 16.6861 10.5282 16.3665 11.3948C16.0468 12.2615 15.6203 13.0153 15.087 13.6564L23.4613 22.0307L22.0562 23.4358ZM8.69213 14.8205C10.4101 14.8205 11.8652 14.2243 13.0575 13.032C14.2498 11.8397 14.846 10.3846 14.846 8.66662C14.846 6.94866 14.2498 5.49353 13.0575 4.30122C11.8652 3.10891 10.4101 2.51275 8.69213 2.51275C6.97417 2.51275 5.51904 3.10891 4.32673 4.30122C3.13444 5.49353 2.5383 6.94866 2.5383 8.66662C2.5383 10.3846 3.13444 11.8397 4.32673 13.032C5.51904 14.2243 6.97417 14.8205 8.69213 14.8205Z" fill="#1B3664"/>
</svg>
