<svg width="21" height="21" viewBox="0 0 21 21" fill="none" xmlns="http://www.w3.org/2000/svg">
<path d="M14.9289 10.5527C14.155 9.87352 13.4156 9.20554 12.7107 8.54875C12.0059 7.89194 11.3882 7.24961 10.8578 6.62177C10.3274 5.99393 9.90585 5.38912 9.59324 4.80734C9.28064 4.22556 9.12434 3.67011 9.12434 3.14098C9.12434 2.28149 9.41818 1.5579 10.0059 0.970201C10.5936 0.382503 11.3172 0.0886536 12.1767 0.0886536C12.6913 0.0886536 13.1865 0.210734 13.6624 0.454892C14.1382 0.699068 14.5604 1.05084 14.9289 1.5102C15.2975 1.05084 15.7197 0.699068 16.1955 0.454892C16.6713 0.210734 17.1665 0.0886536 17.6812 0.0886536C18.5407 0.0886536 19.2643 0.382503 19.852 0.970201C20.4397 1.5579 20.7335 2.28149 20.7335 3.14098C20.7335 3.67011 20.5772 4.22556 20.2646 4.80734C19.952 5.38912 19.5305 5.99393 19 6.62177C18.4696 7.24961 17.8546 7.89194 17.155 8.54875C16.4554 9.20554 15.7134 9.87352 14.9289 10.5527ZM14.9289 8.47177C16.0174 7.4938 17.0004 6.52176 17.8776 5.55565C18.7549 4.58953 19.1936 3.78464 19.1936 3.14098C19.1936 2.70137 19.0514 2.3394 18.7671 2.05508C18.4828 1.77078 18.1208 1.62863 17.6812 1.62863C17.4219 1.62863 17.1557 1.69378 16.8825 1.82408C16.6094 1.9544 16.3399 2.18936 16.074 2.52896L14.9289 3.92282L13.7838 2.52896C13.5179 2.18936 13.2484 1.9544 12.9753 1.82408C12.7022 1.69378 12.436 1.62863 12.1767 1.62863C11.737 1.62863 11.3751 1.77078 11.0908 2.05508C10.8064 2.3394 10.6643 2.70137 10.6643 3.14098C10.6643 3.78464 11.1029 4.58953 11.9802 5.55565C12.8575 6.52176 13.8404 7.4938 14.9289 8.47177ZM12.8756 20.0493L5.373 17.9091V19.3188H0.239746V9.48661H7.5922L13.8786 11.8085C14.3445 11.9809 14.7315 12.2859 15.0395 12.7236C15.3475 13.1612 15.5015 13.6749 15.5015 14.2645H18.0681C18.8052 14.2645 19.4074 14.5143 19.8747 15.0138C20.3419 15.5133 20.5756 16.1717 20.5756 16.9891V17.6406L12.8756 20.0493ZM1.77969 17.7789H3.83303V11.0266H1.77969V17.7789ZM12.8242 18.4265L18.9527 16.5271C18.9211 16.2994 18.822 16.122 18.6555 15.995C18.489 15.868 18.2932 15.8045 18.0681 15.8045H13.1994C12.7018 15.8045 12.2326 15.7719 11.7917 15.7068C11.3507 15.6416 10.9118 15.5333 10.4748 15.382L8.59517 14.7462L9.07691 13.2695L11.071 13.9368C11.3988 14.0526 11.7745 14.1362 12.1984 14.1875C12.6222 14.2389 13.2099 14.2645 13.9615 14.2645C13.9615 14.0105 13.9042 13.7914 13.7897 13.6071C13.6752 13.4228 13.5245 13.2984 13.3376 13.2339L7.33157 11.0266H5.373V16.3178L12.8242 18.4265Z" fill="#BF1E2E"/>
</svg>
