<svg width="16" height="21" viewBox="0 0 16 21" fill="none" xmlns="http://www.w3.org/2000/svg">
<path d="M5.74136 11.5282L6.59033 8.74037L4.35736 7.01873H7.13526L8.00002 4.2428L8.86479 7.01873H11.6427L9.3939 8.74037L10.2429 11.5282L8.00002 9.79468L5.74136 11.5282ZM2.35338 20.5035V13.155C1.70316 12.4758 1.19838 11.6907 0.839049 10.7996C0.479716 9.90854 0.300049 8.95755 0.300049 7.94668C0.300049 5.79858 1.04636 3.97824 2.53898 2.48563C4.03158 0.993014 5.85193 0.246704 8.00002 0.246704C10.1481 0.246704 11.9685 0.993014 13.4611 2.48563C14.9537 3.97824 15.7 5.79858 15.7 7.94668C15.7 8.95755 15.5203 9.90854 15.161 10.7996C14.8017 11.6907 14.2969 12.4758 13.6467 13.155V20.5035L8.00002 18.7069L2.35338 20.5035ZM8.00002 14.1067C9.71113 14.1067 11.1656 13.5078 12.3634 12.31C13.5611 11.1122 14.16 9.65779 14.16 7.94668C14.16 6.23557 13.5611 4.78112 12.3634 3.58335C11.1656 2.38557 9.71113 1.78668 8.00002 1.78668C6.28891 1.78668 4.83447 2.38557 3.63669 3.58335C2.43891 4.78112 1.84002 6.23557 1.84002 7.94668C1.84002 9.65779 2.43891 11.1122 3.63669 12.31C4.83447 13.5078 6.28891 14.1067 8.00002 14.1067ZM3.89336 18.2489L8.00002 17.1472L12.1067 18.2489V14.4344C11.521 14.8161 10.88 15.1136 10.1837 15.3268C9.48738 15.54 8.7595 15.6467 8.00002 15.6467C7.24055 15.6467 6.51267 15.54 5.81638 15.3268C5.12009 15.1136 4.47909 14.8161 3.89336 14.4344V18.2489Z" fill="#BF1E2E"/>
</svg>
